<svg role="img" viewBox="0 0 24 24" xmlns="http://www.w3.org/2000/svg" id="Pubmed--Streamline-Simple-Icons" height="24" width="24">
  <desc>
    Pubmed Streamline Icon: https://streamlinehq.com
  </desc>
  <title>PubMed</title>
  <path d="m8.23 7.982 0.006 -1.005C7.846 1.417 5.096 0 5.096 0l0.048 2.291C3.73 1.056 2.6 1.444 2.6 1.444l0.118 15.307s4.218 -1.796 5.428 5.505C10.238 13.535 21.401 24 21.401 24V9S10.52 -0.18 8.231 7.982zm9.79 9.941 -1.046 -5.232 -1.904 4.507h-0.96l-1.72 -4.301 -1.046 5.04H9.321l2.093 -9.39h0.802l2.491 5.543 2.508 -5.557h0.869l2.075 9.39h-2.138z" fill="#000000" stroke-width="1"></path>
</svg>